<?xml version="1.0" encoding="UTF-8" standalone="no"?>
<!DOCTYPE svg PUBLIC "-//W3C//DTD SVG 1.1//EN"
 "http://www.w3.org/Graphics/SVG/1.1/DTD/svg11.dtd">
<!-- Generated by graphviz version 2.38.0 (20140413.2041)
 -->
<!-- Title: G Pages: 1 -->
<svg width="1056pt" height="124pt"
 viewBox="0.00 0.00 1055.75 123.98" xmlns="http://www.w3.org/2000/svg" xmlns:xlink="http://www.w3.org/1999/xlink">
<g id="graph0" class="graph" transform="scale(1 1) rotate(0) translate(7.992 115.992)">
<title>G</title>
<polygon fill="#000000" stroke="none" points="-7.992,7.992 -7.992,-115.992 1047.76,-115.992 1047.76,7.992 -7.992,7.992"/>
<!-- src/index -->
<g id="node1" class="node"><title>src/index</title>
<ellipse fill="none" stroke="#c6c5fe" cx="487.137" cy="-90" rx="48.1917" ry="18"/>
<text text-anchor="middle" x="487.137" y="-86.3" font-family="Arial" font-size="14.00" fill="#c6c5fe">src/index</text>
</g>
<!-- node_modules/fun&#45;curry/src/index -->
<g id="node2" class="node"><title>node_modules/fun&#45;curry/src/index</title>
<ellipse fill="none" stroke="#cfffac" cx="150.137" cy="-18" rx="150.273" ry="18"/>
<text text-anchor="middle" x="150.137" y="-14.3" font-family="Arial" font-size="14.00" fill="#cfffac">node_modules/fun&#45;curry/src/index</text>
</g>
<!-- src/index&#45;&gt;node_modules/fun&#45;curry/src/index -->
<g id="edge1" class="edge"><title>src/index&#45;&gt;node_modules/fun&#45;curry/src/index</title>
<path fill="none" stroke="#757575" d="M446.151,-80.4866C393.068,-69.4605 299.325,-49.9887 231.53,-35.9066"/>
<polygon fill="#757575" stroke="#757575" points="232.227,-32.4767 221.724,-33.8697 230.803,-39.3304 232.227,-32.4767"/>
</g>
<!-- node_modules/fun&#45;predicate/src/index -->
<g id="node3" class="node"><title>node_modules/fun&#45;predicate/src/index</title>
<ellipse fill="none" stroke="#cfffac" cx="487.137" cy="-18" rx="168.97" ry="18"/>
<text text-anchor="middle" x="487.137" y="-14.3" font-family="Arial" font-size="14.00" fill="#cfffac">node_modules/fun&#45;predicate/src/index</text>
</g>
<!-- src/index&#45;&gt;node_modules/fun&#45;predicate/src/index -->
<g id="edge2" class="edge"><title>src/index&#45;&gt;node_modules/fun&#45;predicate/src/index</title>
<path fill="none" stroke="#757575" d="M487.137,-71.6966C487.137,-63.9827 487.137,-54.7125 487.137,-46.1124"/>
<polygon fill="#757575" stroke="#757575" points="490.637,-46.1043 487.137,-36.1043 483.637,-46.1044 490.637,-46.1043"/>
</g>
<!-- node_modules/stringify&#45;anything/src/index -->
<g id="node4" class="node"><title>node_modules/stringify&#45;anything/src/index</title>
<ellipse fill="none" stroke="#cfffac" cx="857.137" cy="-18" rx="182.768" ry="18"/>
<text text-anchor="middle" x="857.137" y="-14.3" font-family="Arial" font-size="14.00" fill="#cfffac">node_modules/stringify&#45;anything/src/index</text>
</g>
<!-- src/index&#45;&gt;node_modules/stringify&#45;anything/src/index -->
<g id="edge3" class="edge"><title>src/index&#45;&gt;node_modules/stringify&#45;anything/src/index</title>
<path fill="none" stroke="#757575" d="M529.22,-81.0383C586.682,-70.167 691.179,-50.3974 766.796,-36.0915"/>
<polygon fill="#757575" stroke="#757575" points="767.625,-39.4969 776.8,-34.1989 766.323,-32.6189 767.625,-39.4969"/>
</g>
</g>
</svg>
