<?xml version="1.0" encoding="UTF-8" standalone="no"?>
<!DOCTYPE svg PUBLIC "-//W3C//DTD SVG 1.1//EN"
 "http://www.w3.org/Graphics/SVG/1.1/DTD/svg11.dtd">
<!-- Generated by graphviz version 2.38.0 (20140413.2041)
 -->
<!-- Title: G Pages: 1 -->
<svg width="1094pt" height="124pt"
 viewBox="0.00 0.00 1093.60 123.98" xmlns="http://www.w3.org/2000/svg" xmlns:xlink="http://www.w3.org/1999/xlink">
<g id="graph0" class="graph" transform="scale(1 1) rotate(0) translate(7.992 115.992)">
<title>G</title>
<polygon fill="#000000" stroke="none" points="-7.992,7.992 -7.992,-115.992 1085.61,-115.992 1085.61,7.992 -7.992,7.992"/>
<!-- src/index -->
<g id="node1" class="node"><title>src/index</title>
<ellipse fill="none" stroke="#c6c5fe" cx="524.985" cy="-90" rx="48.1917" ry="18"/>
<text text-anchor="middle" x="524.985" y="-86.3" font-family="Arial" font-size="14.00" fill="#c6c5fe">src/index</text>
</g>
<!-- node_modules/fun&#45;compose/src/index -->
<g id="node2" class="node"><title>node_modules/fun&#45;compose/src/index</title>
<ellipse fill="none" stroke="#cfffac" cx="168.985" cy="-18" rx="168.97" ry="18"/>
<text text-anchor="middle" x="168.985" y="-14.3" font-family="Arial" font-size="14.00" fill="#cfffac">node_modules/fun&#45;compose/src/index</text>
</g>
<!-- src/index&#45;&gt;node_modules/fun&#45;compose/src/index -->
<g id="edge1" class="edge"><title>src/index&#45;&gt;node_modules/fun&#45;compose/src/index</title>
<path fill="none" stroke="#757575" d="M483.451,-80.8331C427.92,-69.9141 328.104,-50.2874 255.795,-36.0693"/>
<polygon fill="#757575" stroke="#757575" points="256.269,-32.5956 245.781,-34.1004 254.918,-39.4641 256.269,-32.5956"/>
</g>
<!-- node_modules/fun&#45;predicate/src/index -->
<g id="node3" class="node"><title>node_modules/fun&#45;predicate/src/index</title>
<ellipse fill="none" stroke="#cfffac" cx="524.985" cy="-18" rx="168.97" ry="18"/>
<text text-anchor="middle" x="524.985" y="-14.3" font-family="Arial" font-size="14.00" fill="#cfffac">node_modules/fun&#45;predicate/src/index</text>
</g>
<!-- src/index&#45;&gt;node_modules/fun&#45;predicate/src/index -->
<g id="edge2" class="edge"><title>src/index&#45;&gt;node_modules/fun&#45;predicate/src/index</title>
<path fill="none" stroke="#757575" d="M524.985,-71.6966C524.985,-63.9827 524.985,-54.7125 524.985,-46.1124"/>
<polygon fill="#757575" stroke="#757575" points="528.485,-46.1043 524.985,-36.1043 521.485,-46.1044 528.485,-46.1043"/>
</g>
<!-- node_modules/stringify&#45;anything/src/index -->
<g id="node4" class="node"><title>node_modules/stringify&#45;anything/src/index</title>
<ellipse fill="none" stroke="#cfffac" cx="894.985" cy="-18" rx="182.768" ry="18"/>
<text text-anchor="middle" x="894.985" y="-14.3" font-family="Arial" font-size="14.00" fill="#cfffac">node_modules/stringify&#45;anything/src/index</text>
</g>
<!-- src/index&#45;&gt;node_modules/stringify&#45;anything/src/index -->
<g id="edge3" class="edge"><title>src/index&#45;&gt;node_modules/stringify&#45;anything/src/index</title>
<path fill="none" stroke="#757575" d="M567.068,-81.0383C624.531,-70.167 729.027,-50.3974 804.644,-36.0915"/>
<polygon fill="#757575" stroke="#757575" points="805.473,-39.4969 814.648,-34.1989 804.172,-32.6189 805.473,-39.4969"/>
</g>
</g>
</svg>
